<svg width="481" height="362" viewBox="0 0 481 362" fill="none" xmlns="http://www.w3.org/2000/svg">
<path fill-rule="evenodd" clip-rule="evenodd" d="M297.657 149.915L312.377 186.545L286.413 178.92L297.657 149.915ZM277.078 98.4454L292.049 135.052L265.611 127.472L277.078 98.4454ZM275.839 189.255L260.035 149.928C259.578 148.791 258.902 147.656 258.107 146.628L261.435 138.043L262.146 136.243C262.403 135.74 262.834 135.332 263.345 135.073C263.927 134.776 264.594 134.679 265.206 134.853L291.858 142.821C291.917 142.839 291.97 142.856 292.018 142.873C292.438 143.033 292.751 143.324 292.925 143.679C293.102 144.045 293.142 144.491 293.009 144.941C292.991 145 292.971 145.055 292.953 145.107L275.839 189.255ZM244.465 182.624L255.275 154.735L269.889 191.096L245.658 183.852C245.598 183.836 245.546 183.819 245.499 183.801C245.077 183.64 244.763 183.349 244.591 182.996C244.537 182.879 244.491 182.755 244.465 182.624ZM200.014 88.2627L228.567 96.2041C228.627 96.2214 228.682 96.2387 228.729 96.2547C229.159 96.4147 229.478 96.7054 229.653 97.0601C229.698 97.1521 229.735 97.2507 229.762 97.3521L217.802 128.559L211.85 143.624C211.61 144.231 211.122 144.72 210.529 145.016C209.934 145.313 209.255 145.412 208.633 145.239L180.079 137.297C180.019 137.281 179.966 137.264 179.918 137.247C179.489 137.087 179.169 136.796 178.994 136.443C178.814 136.075 178.773 135.631 178.91 135.181C178.927 135.121 178.946 135.067 178.966 135.015L196.798 89.8774C197.038 89.2707 197.526 88.7827 198.119 88.4854C198.713 88.1881 199.393 88.0894 200.014 88.2627ZM223.618 130.752L234.469 103.287L249.438 139.893L223.895 132.569C223.791 132.459 223.705 132.335 223.639 132.201C223.458 131.833 223.418 131.388 223.553 130.939C223.567 130.892 223.582 130.849 223.598 130.807L223.599 130.803L223.601 130.797L223.603 130.793L223.605 130.788L223.606 130.783L223.609 130.779L223.61 130.773L223.618 130.752ZM221.653 32.4894L250.206 40.4307C250.266 40.4481 250.319 40.4654 250.369 40.4827C250.798 40.6414 251.117 40.9334 251.291 41.2867C251.473 41.6547 251.513 42.0987 251.378 42.5481C251.359 42.6081 251.341 42.6627 251.319 42.7147L235.805 81.9867C235.549 82.4054 235.329 82.8481 235.143 83.3121L233.206 88.3707C232.942 88.7374 232.581 89.0374 232.167 89.2441C231.573 89.5401 230.894 89.6401 230.273 89.4667L201.718 81.5254C201.659 81.5081 201.605 81.4907 201.557 81.4734C201.127 81.3147 200.807 81.0241 200.634 80.6694C200.453 80.3027 200.411 79.8587 200.547 79.4081C200.565 79.3481 200.585 79.2934 200.605 79.2414L218.437 34.1041C218.675 33.4974 219.165 33.0094 219.758 32.7121C220.351 32.4147 221.031 32.3174 221.653 32.4894ZM244.641 76.5401L256.107 47.5147L271.077 84.1214L244.641 76.5401ZM238.861 90.9841C239.034 90.6721 239.187 90.3481 239.319 90.0094L241.379 84.7947C241.627 84.5001 241.945 84.2547 242.297 84.0774C242.89 83.7814 243.57 83.6827 244.191 83.8547L271.177 91.3614C271.238 91.3787 271.291 91.3947 271.339 91.4134C271.769 91.5721 272.087 91.8627 272.262 92.2161C272.443 92.5841 272.485 93.0281 272.349 93.4787C272.33 93.5387 272.311 93.5934 272.291 93.6441L255.119 137.111L239.319 98.4707C238.841 97.3027 238.127 96.1374 237.289 95.0867L238.861 90.9841ZM177.718 143.803L205.761 151.791C205.819 151.807 205.873 151.824 205.921 151.841C206.342 152.001 206.655 152.292 206.827 152.647C207.005 153.015 207.046 153.459 206.913 153.908C206.895 153.969 206.877 154.023 206.857 154.073L196.813 179.985L195.062 184.201C194.975 184.425 194.901 184.645 194.837 184.864C194.773 185.079 194.718 185.293 194.673 185.507L189.371 199.18C189.137 199.787 188.658 200.273 188.075 200.569C187.491 200.867 186.825 200.963 186.214 200.789L158.17 192.801C158.111 192.784 158.058 192.767 158.01 192.749C157.589 192.589 157.274 192.299 157.105 191.944C156.925 191.576 156.885 191.131 157.019 190.681C157.037 190.623 157.054 190.568 157.074 190.516L174.559 145.411C174.794 144.804 175.274 144.317 175.857 144.021C176.439 143.724 177.107 143.627 177.718 143.803ZM200.655 187.013L202.534 182.167L211.875 159.665L226.281 195.512L201.006 188.092C200.931 188 200.869 187.901 200.818 187.797C200.703 187.561 200.646 187.293 200.655 187.013ZM250.669 148.872L238.837 179.4C238.749 179.624 238.674 179.845 238.609 180.063C238.462 180.561 238.363 181.061 238.31 181.557L233.086 195.033C233.031 195.175 232.963 195.309 232.883 195.439C232.786 195.099 232.667 194.749 232.525 194.393L216.321 154.073C216.014 153.309 215.606 152.548 215.133 151.816L217.266 146.679C217.421 146.389 217.559 146.091 217.682 145.783L218.537 143.615L219.382 141.579C219.618 140.972 220.097 140.485 220.679 140.189C221.262 139.893 221.929 139.796 222.541 139.971L249.477 147.644C249.535 147.66 249.587 147.677 249.635 147.695C250.057 147.855 250.37 148.148 250.542 148.5C250.599 148.617 250.642 148.743 250.669 148.872Z" fill="#FFF200"/>
<path d="M250.669 148.872L238.837 179.4C238.749 179.624 238.674 179.845 238.609 180.063C238.462 180.561 238.363 181.061 238.31 181.557L233.086 195.033C233.031 195.175 232.963 195.309 232.883 195.439C232.786 195.099 232.667 194.749 232.525 194.393L216.321 154.073C216.014 153.309 215.606 152.548 215.133 151.816L217.266 146.679C217.421 146.389 217.559 146.091 217.682 145.783L218.537 143.615L219.382 141.579C219.618 140.972 220.097 140.485 220.679 140.189C221.262 139.893 221.929 139.796 222.541 139.971L249.477 147.644C249.535 147.66 249.587 147.677 249.635 147.695C250.057 147.855 250.37 148.148 250.542 148.5C250.599 148.617 250.642 148.743 250.669 148.872ZM274.807 234.989V228.737L260.415 230.212L260.254 230.231L260.094 230.253L259.937 230.28L259.778 230.309V230.311L259.622 230.344L259.466 230.383C256.474 231.149 254.163 233.988 254.163 237.104H254.165L254.163 237.169V259.599L250.605 259.964V266.215L254.163 265.851H254.165L276.371 263.576C276.371 260.137 273.558 257.613 270.119 257.964L260.414 258.959L260.415 258.893V236.464L274.807 234.989ZM382.338 252.721L396.73 251.248L396.891 251.229L397.051 251.207L397.209 251.18L397.367 251.151V251.149L397.523 251.116C400.591 250.409 402.982 247.525 402.982 244.356H402.981L402.982 244.291V215.609C399.543 215.961 396.73 219.092 396.73 222.567V244.996L388.589 245.831C385.15 246.183 382.338 249.284 382.338 252.721ZM393.131 216.619L378.741 218.092L378.579 218.111L378.419 218.133L378.261 218.16L378.103 218.189V218.191L377.947 218.224C374.879 218.931 372.489 221.815 372.489 224.984H372.49L372.489 225.049V253.731C375.927 253.379 378.741 250.248 378.741 246.773V224.344L386.882 223.509C390.319 223.157 393.131 220.057 393.131 216.619ZM317.719 230.593V224.343L303.326 225.816L303.166 225.836L303.006 225.857V225.859L302.847 225.884L302.69 225.915L302.533 225.948V225.949C299.466 226.656 297.075 229.539 297.075 232.709V232.773V261.455C300.513 261.103 303.326 257.972 303.326 254.499V232.069L317.719 230.593ZM65.6376 256.415V250.163L51.2449 251.637L51.0845 251.656L50.9246 251.679L50.7657 251.705L50.6085 251.735V251.736L50.4517 251.769C47.4162 252.469 45.0444 255.3 44.996 258.431L44.9944 258.528L44.9938 258.595V281.024L43.9137 281.135C40.4752 281.487 37.6621 284.588 37.6621 288.026L44.9938 287.275L45.1542 287.257L45.3146 287.234V287.234L45.473 287.207L45.6309 287.177V287.177L45.787 287.144V287.143L45.9424 287.105C48.9345 286.337 51.2449 283.5 51.2449 280.383H51.2438L51.2449 280.319V257.888L65.6376 256.415ZM334.945 228.592L347.374 227.319V249.987C347.374 253.46 350.187 256.015 353.625 255.663V226.679L360.397 225.985C363.837 225.633 366.649 222.531 366.649 219.093L341.197 221.7C337.758 222.053 334.945 225.155 334.945 228.592ZM178.47 238.368L195.939 236.579C199.377 236.227 202.19 238.752 202.19 242.191H202.183C202.187 242.291 202.19 242.391 202.19 242.493V248.376L202.189 248.44H202.19C202.19 251.693 199.673 254.644 196.489 255.252C199.673 255.209 202.19 257.672 202.19 260.96V264.657L202.189 264.724H202.19C202.19 267.839 199.879 270.677 196.887 271.444V271.445L196.731 271.483L196.575 271.516V271.517L196.418 271.548L196.259 271.573L196.099 271.596L195.939 271.615L178.47 273.405C178.47 269.965 181.283 266.864 184.721 266.512L195.939 265.364V255.332L178.47 257.123C178.47 253.684 181.283 250.583 184.721 250.231L195.939 249.081V242.831L184.721 243.979C181.283 244.332 178.47 241.807 178.47 238.368ZM420.235 213.804L437.703 212.015L437.865 212L438.025 211.991L438.183 211.984L438.341 211.983L438.497 211.984V211.985C438.601 211.988 438.705 211.992 438.806 212V212.001C441.723 212.228 443.955 214.564 443.955 217.627H443.954L443.955 217.692V227.592L443.954 227.657H443.955C443.955 230.827 441.563 233.709 438.497 234.416V234.417L438.341 234.451L438.183 234.481L438.025 234.507V234.508L437.865 234.531L437.703 234.549L426.486 235.697C423.049 236.049 420.235 233.525 420.235 230.087L437.703 228.297V218.267L426.486 219.415C423.049 219.767 420.235 217.243 420.235 213.804ZM307.541 243.901L322.018 242.419L322.225 242.393V252.563C322.225 256.037 325.038 258.592 328.475 258.239V223.241L322.225 223.881V236.147L313.794 237.009C310.354 237.361 307.541 240.464 307.541 243.901ZM137.089 261.361L154.558 259.571V269.736C154.558 273.211 157.37 275.765 160.809 275.413V265.199C160.809 261.911 158.29 259.448 155.106 259.491C158.29 258.884 160.809 255.933 160.809 252.68H160.807L160.809 252.615V240.415C157.37 240.767 154.558 243.897 154.558 247.372V253.32L143.339 254.469C139.901 254.821 137.089 257.921 137.089 261.361ZM289.189 256.012V262.263L285.618 262.629L285.563 262.633V256.383L289.189 256.012ZM243.694 266.923V231.925L237.501 232.56H237.498L237.443 232.565V232.636V242.815V261.247C237.443 264.721 240.257 267.275 243.694 266.923ZM118.889 279.707V244.708L112.637 245.349V245.419V255.599V274.031C112.637 277.505 115.45 280.059 118.889 279.707ZM218.181 269.536L233.249 248.633V238.485L218.181 259.491V240.855C218.181 237.38 215.367 234.827 211.929 235.179V270.176L218.181 269.536ZM93.3741 282.32L108.442 261.419V251.268L93.3741 272.275V253.639C93.3741 250.164 90.561 247.609 87.1225 247.963V282.96L93.3741 282.32ZM411.937 214.455L418.187 213.815V248.812L411.937 249.453V214.455ZM170.173 274.453L176.423 273.812V238.816L170.173 239.456V274.453ZM128.791 278.693L135.041 278.052V243.055L128.791 243.695V278.693ZM285.563 256.383V227.636L279.313 228.276V256.957C279.313 260.393 282.063 262.929 285.45 262.644H285.457L285.563 262.633V256.383ZM76.3938 284.059V249.061L70.1433 249.701V278.383C70.1433 281.856 72.9564 284.412 76.3938 284.059ZM173.049 138.564C171.183 139.547 169.631 141.181 168.833 143.243L151.347 188.348C151.261 188.572 151.186 188.793 151.121 189.011C150.529 191.007 150.727 193.021 151.551 194.723C152.385 196.439 153.841 197.827 155.761 198.552C155.975 198.635 156.194 198.705 156.41 198.768L184.454 206.757C186.587 207.364 188.846 207.063 190.763 206.088C192.685 205.111 194.283 203.452 195.099 201.348L198.041 193.76L198.265 193.827C198.643 194.049 199.047 194.244 199.474 194.407C199.69 194.487 199.907 194.56 200.125 194.621L228.169 202.611C230.303 203.219 232.561 202.916 234.479 201.94C236.398 200.964 237.998 199.307 238.814 197.201L241.755 189.613L270.619 198.088C271.482 198.343 272.307 198.393 273.073 198.267C273.395 198.212 273.702 198.131 273.991 198.021C274.99 197.885 275.962 197.576 276.861 197.119C278.779 196.143 280.379 194.485 281.195 192.38L284.137 184.792L313.002 193.268C313.863 193.521 314.687 193.572 315.454 193.445C316.671 193.243 317.646 192.637 318.343 191.689C318.931 190.891 319.258 189.909 319.295 188.797C319.327 187.8 319.113 186.652 318.621 185.427L302.417 145.107C301.749 143.445 300.615 141.791 299.325 140.461C299.049 140.176 298.761 139.905 298.469 139.648C298.849 138.96 299.061 138.167 299.09 137.293C299.125 136.296 298.906 135.148 298.406 133.923L281.929 93.6279C281.25 91.9692 280.095 90.3145 278.783 88.9879C278.463 88.6652 278.133 88.3599 277.791 88.0746C277.987 87.5492 278.098 86.9759 278.119 86.3639C278.153 85.3652 277.937 84.2172 277.434 82.9919L260.957 42.6985C260.278 41.0385 259.125 39.3839 257.811 38.0572C256.746 36.9799 255.535 36.0852 254.331 35.5239C253.823 35.1839 253.265 34.8986 252.663 34.6746C252.445 34.5946 252.223 34.5212 252.002 34.4599L223.449 26.5185C223.121 26.4279 222.791 26.3572 222.458 26.3066C221.962 26.2106 221.477 26.1799 221.011 26.2106C219.625 26.2332 218.254 26.5826 217.022 27.1999C215.067 28.1772 213.437 29.8399 212.606 31.9466L194.774 77.0839C194.686 77.3079 194.609 77.5292 194.543 77.7466C193.963 79.6612 194.123 81.5906 194.878 83.2452C193.149 84.2452 191.726 85.7972 190.967 87.7185L173.135 132.857C173.047 133.081 172.97 133.303 172.903 133.519C172.378 135.261 172.462 137.016 173.049 138.564ZM200.655 187.013L202.534 182.167L211.875 159.665L226.281 195.512L201.006 188.092C200.931 188 200.869 187.901 200.818 187.797C200.703 187.561 200.646 187.293 200.655 187.013ZM177.718 143.803L205.761 151.791C205.819 151.807 205.873 151.824 205.921 151.841C206.342 152.001 206.655 152.292 206.827 152.647C207.005 153.015 207.046 153.459 206.913 153.908C206.895 153.969 206.877 154.023 206.857 154.073L196.813 179.985L195.062 184.201C194.975 184.425 194.901 184.645 194.837 184.864C194.773 185.079 194.718 185.293 194.673 185.507L189.371 199.18C189.137 199.787 188.658 200.273 188.075 200.569C187.491 200.867 186.825 200.963 186.214 200.789L158.17 192.801C158.111 192.784 158.058 192.767 158.01 192.749C157.589 192.589 157.274 192.299 157.105 191.944C156.925 191.576 156.885 191.131 157.019 190.681C157.037 190.623 157.054 190.568 157.074 190.516L174.559 145.411C174.794 144.804 175.274 144.317 175.857 144.021C176.439 143.724 177.107 143.627 177.718 143.803ZM238.861 90.9839C239.034 90.6719 239.187 90.3479 239.319 90.0092L241.379 84.7945C241.627 84.4999 241.945 84.2546 242.297 84.0772C242.89 83.7812 243.57 83.6825 244.191 83.8545L271.177 91.3612C271.238 91.3785 271.291 91.3946 271.339 91.4132C271.769 91.5719 272.087 91.8626 272.262 92.2159C272.443 92.5839 272.485 93.0279 272.349 93.4786C272.33 93.5386 272.311 93.5932 272.291 93.6439L255.119 137.111L239.319 98.4706C238.841 97.3026 238.127 96.1372 237.289 95.0865L238.861 90.9839ZM244.641 76.5399L256.107 47.5146L271.077 84.1212L244.641 76.5399ZM221.653 32.4892L250.206 40.4305C250.266 40.4479 250.319 40.4652 250.369 40.4826C250.798 40.6412 251.117 40.9332 251.291 41.2865C251.473 41.6545 251.513 42.0986 251.378 42.5479C251.359 42.6079 251.341 42.6626 251.319 42.7146L235.805 81.9865C235.549 82.4052 235.329 82.8479 235.143 83.3119L233.206 88.3706C232.942 88.7372 232.581 89.0372 232.167 89.2439C231.573 89.5399 230.894 89.6399 230.273 89.4665L201.718 81.5252C201.659 81.5079 201.605 81.4906 201.557 81.4732C201.127 81.3146 200.807 81.0239 200.634 80.6692C200.453 80.3026 200.411 79.8586 200.547 79.4079C200.565 79.3479 200.585 79.2932 200.605 79.2412L218.437 34.1039C218.675 33.4972 219.165 33.0092 219.758 32.7119C220.351 32.4146 221.031 32.3172 221.653 32.4892ZM223.618 130.752L234.469 103.287L249.438 139.893L223.895 132.569C223.791 132.459 223.705 132.335 223.639 132.201C223.458 131.833 223.418 131.388 223.553 130.939C223.567 130.892 223.582 130.849 223.598 130.807L223.599 130.803L223.601 130.797L223.603 130.793L223.605 130.788L223.606 130.783L223.609 130.779L223.61 130.773L223.618 130.752ZM200.014 88.2625L228.567 96.2039C228.627 96.2212 228.682 96.2385 228.729 96.2545C229.159 96.4145 229.478 96.7052 229.653 97.0599C229.698 97.1519 229.735 97.2505 229.762 97.3519L217.802 128.559L211.85 143.624C211.61 144.231 211.122 144.72 210.529 145.016C209.934 145.313 209.255 145.412 208.633 145.239L180.079 137.297C180.019 137.281 179.966 137.264 179.918 137.247C179.489 137.087 179.169 136.796 178.994 136.443C178.814 136.075 178.773 135.631 178.91 135.181C178.927 135.121 178.946 135.067 178.966 135.015L196.798 89.8772C197.038 89.2706 197.526 88.7825 198.119 88.4852C198.713 88.1879 199.393 88.0892 200.014 88.2625ZM244.465 182.624L255.275 154.735L269.889 191.096L245.658 183.852C245.598 183.836 245.546 183.819 245.499 183.801C245.077 183.64 244.763 183.349 244.591 182.996C244.537 182.879 244.491 182.755 244.465 182.624ZM275.839 189.255L260.035 149.928C259.578 148.791 258.902 147.656 258.107 146.628L261.435 138.043L262.146 136.243C262.403 135.74 262.834 135.332 263.345 135.073C263.927 134.776 264.594 134.679 265.206 134.853L291.858 142.821C291.917 142.839 291.97 142.856 292.018 142.873C292.438 143.033 292.751 143.324 292.925 143.679C293.102 144.045 293.142 144.491 293.009 144.941C292.991 145 292.971 145.055 292.953 145.107L275.839 189.255ZM277.078 98.4452L292.049 135.052L265.611 127.472L277.078 98.4452ZM297.657 149.915L312.377 186.545L286.413 178.92L297.657 149.915Z" fill="#231F20"/>
<path d="M75.3176 311.509L82.1142 310.814L82.0788 313.486L75.2822 314.182L75.3176 311.509ZM66.7728 311.83L65.6883 308.618L65.5629 308.631L65.9207 311.867L65.8048 320.614L62.8203 320.92L63.0558 303.148L65.5136 302.896L70.1341 311.436L71.146 314.454L71.2965 314.438L70.936 311.404L71.0546 302.455L74.0391 302.15L73.8035 319.921L71.3457 320.173L66.7728 311.83ZM74.9895 306.03C74.9997 305.257 75.1004 304.592 75.2914 304.035C75.4825 303.479 75.7474 303.015 76.0863 302.645C76.4253 302.258 76.8216 301.966 77.275 301.768C77.7454 301.552 78.2565 301.416 78.8082 301.359C79.36 301.303 79.8606 301.327 80.31 301.432C80.7764 301.519 81.1745 301.713 81.5045 302.015C81.8344 302.317 82.0877 302.736 82.2642 303.271C82.4577 303.789 82.5492 304.451 82.5385 305.257C82.5278 306.064 82.4184 306.755 82.2104 307.33C82.0194 307.887 81.7545 308.35 81.4156 308.72C81.0768 309.091 80.6722 309.376 80.2021 309.575C79.7489 309.755 79.2464 309.874 78.6946 309.93C78.1429 309.987 77.6338 309.972 77.1674 309.885C76.718 309.78 76.3283 309.577 75.9984 309.275C75.6684 308.973 75.4151 308.562 75.2383 308.043C75.0617 307.508 74.9788 306.836 74.9895 306.03ZM77.6228 305.76C77.6122 306.567 77.6965 307.129 77.876 307.446C78.0557 307.747 78.3378 307.877 78.7224 307.838C78.923 307.817 79.0905 307.775 79.225 307.711C79.3763 307.628 79.4949 307.499 79.5808 307.322C79.6833 307.144 79.7532 306.91 79.7904 306.621C79.8444 306.33 79.8742 305.966 79.88 305.529C79.8914 304.672 79.8071 304.102 79.6272 303.818C79.4473 303.535 79.1651 303.412 78.7805 303.452C78.3959 303.491 78.1097 303.671 77.9218 303.993C77.7338 304.314 77.6342 304.903 77.6228 305.76ZM85.4129 315.939L88.272 315.647L88.4033 305.74L88.7521 303.992L87.7041 305.585L86.0318 307.04L84.6748 305.492L89.578 300.257L91.3336 300.078L91.1311 315.354L93.94 315.067L93.9046 317.739L85.3775 318.611L85.4129 315.939ZM111.656 302.379C111.65 302.816 111.594 303.258 111.488 303.705C111.399 304.133 111.251 304.551 111.045 304.958C110.84 305.349 110.568 305.704 110.23 306.024C109.908 306.342 109.521 306.6 109.067 306.797L109.065 306.948C109.465 307.008 109.84 307.121 110.188 307.287C110.553 307.451 110.867 307.695 111.13 308.021C111.393 308.33 111.597 308.729 111.74 309.217C111.901 309.688 111.977 310.259 111.968 310.931C111.956 311.839 111.787 312.645 111.46 313.349C111.15 314.036 110.725 314.616 110.185 315.091C109.661 315.564 109.046 315.938 108.342 316.211C107.637 316.485 106.891 316.662 106.105 316.742C105.871 316.766 105.57 316.797 105.203 316.834C104.835 316.872 104.434 316.896 103.999 316.907C103.582 316.933 103.147 316.944 102.697 316.94C102.246 316.936 101.829 316.903 101.446 316.841L101.676 299.447C102.229 299.29 102.908 299.137 103.711 298.987C104.531 298.82 105.343 298.695 106.145 298.612C106.881 298.537 107.583 298.524 108.25 298.573C108.934 298.621 109.524 298.779 110.022 299.047C110.536 299.313 110.94 299.716 111.233 300.257C111.527 300.781 111.667 301.488 111.656 302.379ZM106.217 313.987C106.919 313.915 107.499 313.629 107.957 313.129C108.414 312.629 108.649 311.942 108.66 311.068C108.668 310.514 108.598 310.084 108.452 309.78C108.306 309.46 108.109 309.228 107.86 309.086C107.612 308.927 107.321 308.839 106.987 308.823C106.67 308.805 106.336 308.814 105.985 308.85L104.706 308.981L104.639 313.997C104.772 314.034 104.997 314.053 105.315 314.054C105.649 314.036 105.95 314.014 106.217 313.987ZM105.466 306.41C105.65 306.392 105.859 306.362 106.093 306.321C106.345 306.262 106.546 306.208 106.697 306.159C107.184 305.924 107.598 305.58 107.938 305.125C108.294 304.669 108.477 304.105 108.486 303.433C108.492 302.996 108.438 302.632 108.325 302.342C108.212 302.051 108.056 301.832 107.858 301.685C107.66 301.52 107.419 301.419 107.136 301.381C106.869 301.324 106.577 301.312 106.259 301.345C105.574 301.415 105.089 301.498 104.804 301.594L104.739 306.485L105.466 306.41ZM126.802 299.671L122.237 300.138L122.042 314.859L118.882 315.183L119.116 297.537L130.001 296.423L129.767 314.069L126.607 314.392L126.802 299.671ZM132.266 296.368C132.87 296.172 133.531 296.003 134.251 295.862C134.971 295.705 135.691 295.589 136.41 295.516C137.179 295.437 137.93 295.436 138.664 295.511C139.415 295.569 140.08 295.778 140.659 296.138C141.239 296.498 141.707 297.046 142.065 297.782C142.423 298.5 142.594 299.473 142.577 300.7C142.563 301.809 142.391 302.766 142.063 303.572C141.752 304.376 141.334 305.048 140.81 305.588C140.285 306.129 139.678 306.543 138.99 306.832C138.318 307.119 137.623 307.299 136.904 307.372C136.837 307.379 136.728 307.39 136.578 307.406C136.427 307.421 136.268 307.437 136.101 307.455C135.934 307.455 135.767 307.455 135.6 307.455C135.45 307.454 135.342 307.448 135.275 307.438L135.194 313.514L132.034 313.837L132.266 296.368ZM135.313 304.59C135.413 304.613 135.596 304.628 135.863 304.634C136.147 304.622 136.339 304.611 136.44 304.6C136.807 304.563 137.159 304.476 137.495 304.341C137.831 304.206 138.126 304.008 138.379 303.747C138.65 303.468 138.864 303.11 139.02 302.675C139.176 302.223 139.259 301.669 139.267 301.013C139.275 300.459 139.206 299.996 139.06 299.625C138.932 299.252 138.743 298.969 138.495 298.776C138.264 298.565 137.991 298.425 137.674 298.357C137.358 298.288 137.024 298.272 136.673 298.308C136.155 298.361 135.728 298.447 135.393 298.565L135.313 304.59ZM143.506 303.852C143.546 300.861 144.086 298.531 145.127 296.864C146.167 295.197 147.732 294.256 149.822 294.042C150.909 293.931 151.843 294.054 152.623 294.41C153.403 294.75 154.039 295.298 154.529 296.053C155.021 296.792 155.376 297.72 155.595 298.839C155.83 299.939 155.939 301.187 155.921 302.582C155.881 305.573 155.324 307.904 154.25 309.575C153.193 311.244 151.636 312.184 149.579 312.394C148.476 312.507 147.534 312.394 146.754 312.054C145.99 311.696 145.363 311.147 144.872 310.409C144.381 309.653 144.026 308.725 143.807 307.623C143.588 306.504 143.488 305.247 143.506 303.852ZM146.817 303.513C146.805 304.404 146.844 305.231 146.934 305.994C147.024 306.74 147.183 307.378 147.41 307.909C147.636 308.439 147.923 308.846 148.27 309.13C148.634 309.411 149.083 309.525 149.618 309.47C150.588 309.371 151.322 308.801 151.82 307.759C152.318 306.718 152.581 305.105 152.61 302.921C152.621 302.063 152.582 301.262 152.492 300.516C152.402 299.753 152.243 299.106 152.016 298.576C151.807 298.027 151.52 297.611 151.156 297.33C150.793 297.031 150.335 296.91 149.784 296.967C147.861 297.163 146.872 299.346 146.817 303.513ZM169.009 300.966L169.405 297.552L169.28 297.565L168.312 300.684L165.37 307.178L164.317 307.286L161.365 301.37L160.477 298.415L160.327 298.43L160.758 301.785L160.637 310.91L157.653 311.216L157.887 293.57L160.921 293.259L164.482 300.523L165.055 302.654L165.155 302.644L165.762 300.341L169.298 292.402L172.282 292.097L172.049 309.742L168.889 310.066L169.009 300.966ZM185.877 290.705L189.037 290.382L188.803 308.028L185.643 308.351L185.877 290.705ZM174.541 291.865L177.701 291.542L177.617 297.869C177.768 297.82 178.02 297.753 178.371 297.666C178.723 297.58 179.066 297.52 179.401 297.485C180.103 297.414 180.754 297.431 181.354 297.537C181.97 297.625 182.501 297.856 182.947 298.23C183.393 298.604 183.745 299.147 184.003 299.859C184.261 300.555 184.382 301.465 184.367 302.591C184.34 304.658 183.851 306.252 182.901 307.373C181.952 308.477 180.44 309.135 178.367 309.348C178.166 309.368 177.907 309.386 177.59 309.402C177.272 309.435 176.921 309.454 176.537 309.459C176.17 309.48 175.786 309.478 175.385 309.451C175.001 309.44 174.643 309.41 174.309 309.36L174.541 291.865ZM177.505 306.365C177.638 306.401 177.805 306.426 178.005 306.439C178.205 306.436 178.414 306.423 178.631 306.4C179.384 306.323 179.972 306.037 180.396 305.54C180.82 305.027 181.04 304.207 181.055 303.081C181.062 302.51 181.01 302.045 180.898 301.687C180.786 301.33 180.631 301.052 180.433 300.854C180.235 300.656 179.986 300.539 179.686 300.502C179.403 300.447 179.086 300.438 178.735 300.474C178.568 300.491 178.358 300.538 178.107 300.614C177.856 300.69 177.679 300.758 177.578 300.819L177.505 306.365ZM191.06 307.797L191.294 290.151L194.454 289.828L194.259 304.55L197.243 304.244L197.438 289.522L200.598 289.199L200.403 303.921L203.388 303.615L203.583 288.894L206.743 288.57L206.509 306.216L191.06 307.797ZM216.486 290.493L213.828 290.765C213.669 293.971 213.474 296.659 213.245 298.831C213.016 300.985 212.61 302.655 212.027 303.839C211.821 304.263 211.582 304.623 211.311 304.919C211.057 305.197 210.795 305.425 210.526 305.604C210.273 305.764 210.013 305.883 209.745 305.961C209.476 306.055 209.233 306.114 209.016 306.136C208.665 306.172 208.356 306.17 208.089 306.13C207.822 306.107 207.573 306.049 207.34 305.955L207.729 303.045C208.029 303.132 208.33 303.11 208.632 302.978C208.935 302.83 209.189 302.527 209.395 302.069C209.601 301.679 209.784 301.123 209.943 300.402C210.104 299.664 210.241 298.727 210.356 297.591C210.488 296.453 210.59 295.108 210.66 293.557C210.748 292.004 210.822 290.2 210.882 288.147L219.685 287.246L219.451 304.892L216.291 305.215L216.486 290.493ZM221.958 287.013L230.735 286.115L230.697 289.039L225.079 289.614L225.021 293.95L230.113 293.429L230.074 296.353L224.983 296.874L224.922 301.412L230.641 300.827L230.602 303.751L221.724 304.659L221.958 287.013ZM240.549 295.281L235.759 295.772L235.66 303.233L232.5 303.557L232.734 285.911L235.894 285.587L235.798 292.847L240.588 292.357L240.684 285.097L243.844 284.774L243.61 302.42L240.45 302.743L240.549 295.281ZM253.922 293.913L249.132 294.403L249.033 301.865L245.873 302.188L246.107 284.542L249.267 284.219L249.17 291.479L253.961 290.989L254.057 283.729L257.217 283.405L256.983 301.051L253.823 301.375L253.922 293.913ZM258.961 292.038C259.001 289.047 259.541 286.717 260.581 285.05C261.622 283.383 263.187 282.442 265.277 282.228C266.364 282.117 267.297 282.24 268.077 282.596C268.858 282.936 269.493 283.483 269.984 284.239C270.475 284.977 270.83 285.906 271.049 287.025C271.285 288.125 271.394 289.373 271.375 290.768C271.336 293.759 270.779 296.09 269.705 297.761C268.647 299.43 267.09 300.369 265.034 300.58C263.93 300.693 262.989 300.579 262.208 300.24C261.445 299.881 260.818 299.333 260.327 298.595C259.836 297.839 259.481 296.911 259.262 295.808C259.043 294.69 258.942 293.433 258.961 292.038ZM262.271 291.699C262.26 292.59 262.299 293.417 262.389 294.179C262.479 294.925 262.638 295.564 262.864 296.094C263.091 296.625 263.378 297.032 263.725 297.315C264.088 297.597 264.538 297.71 265.073 297.656C266.042 297.557 266.776 296.986 267.274 295.945C267.772 294.904 268.036 293.291 268.065 291.106C268.076 290.249 268.037 289.448 267.946 288.702C267.856 287.939 267.698 287.292 267.471 286.762C267.261 286.212 266.975 285.797 266.611 285.515C266.248 285.217 265.79 285.096 265.238 285.152C263.316 285.349 262.327 287.531 262.271 291.699ZM284.464 289.151L284.86 285.737L284.734 285.75L283.766 288.87L280.825 295.364L279.772 295.472L276.82 289.556L275.932 286.601L275.782 286.616L276.213 289.97L276.092 299.096L273.108 299.401L273.342 281.755L276.376 281.445L279.937 288.708L280.509 290.84L280.61 290.83L281.216 288.527L284.753 280.588L287.737 280.282L287.503 297.928L284.343 298.252L284.464 289.151ZM307.634 299.015L305.402 299.244L305.143 296.123L296.114 297.047L295.771 300.229L293.539 300.457L293.62 294.382L295.15 294.226C295.252 294.03 295.408 293.595 295.618 292.919C295.844 292.241 296.073 291.295 296.306 290.079C296.54 288.864 296.735 287.367 296.892 285.589C297.066 283.809 297.16 281.718 297.175 279.317L306.104 278.403L305.909 293.125L307.714 292.94L307.634 299.015ZM302.749 293.448L302.905 281.65L300.121 281.935C299.998 284.918 299.764 287.435 299.42 289.484C299.092 291.531 298.764 293 298.435 293.889L302.749 293.448ZM309.394 278.066L318.171 277.168L318.133 280.092L312.515 280.667L312.457 285.003L317.549 284.482L317.51 287.406L312.419 287.927L312.358 292.465L318.077 291.88L318.038 294.804L309.16 295.712L309.394 278.066ZM331.292 284.36L331.688 280.946L331.563 280.958L330.595 284.078L327.654 290.572L326.6 290.68L323.648 284.764L322.761 281.809L322.61 281.824L323.042 285.179L322.921 294.304L319.936 294.609L320.17 276.964L323.205 276.653L326.765 283.917L327.338 286.048L327.438 286.038L328.045 283.735L331.581 275.796L334.566 275.49L334.332 293.136L331.172 293.46L331.292 284.36ZM336.306 284.123C336.346 281.132 336.886 278.803 337.927 277.135C338.967 275.468 340.533 274.527 342.623 274.314C343.709 274.202 344.643 274.325 345.423 274.682C346.203 275.021 346.839 275.569 347.33 276.324C347.821 277.063 348.176 277.991 348.395 279.11C348.631 280.211 348.739 281.458 348.721 282.853C348.681 285.844 348.124 288.175 347.05 289.846C345.993 291.515 344.436 292.455 342.379 292.665C341.276 292.778 340.334 292.665 339.554 292.325C338.79 291.967 338.163 291.419 337.672 290.68C337.181 289.925 336.826 288.996 336.607 287.894C336.388 286.775 336.288 285.518 336.306 284.123ZM339.617 283.785C339.605 284.675 339.644 285.502 339.734 286.265C339.824 287.011 339.983 287.649 340.21 288.18C340.436 288.71 340.723 289.117 341.07 289.401C341.434 289.682 341.883 289.796 342.418 289.741C343.388 289.642 344.122 289.072 344.62 288.031C345.118 286.989 345.381 285.377 345.41 283.192C345.422 282.335 345.382 281.533 345.292 280.787C345.202 280.024 345.043 279.378 344.817 278.847C344.607 278.298 344.32 277.882 343.957 277.601C343.593 277.302 343.136 277.181 342.584 277.238C340.661 277.435 339.672 279.617 339.617 283.785ZM358.502 283.212L353.712 283.702L353.613 291.163L350.453 291.487L350.687 273.841L353.847 273.517L353.751 280.778L358.541 280.287L358.637 273.027L361.797 272.704L361.563 290.35L358.403 290.673L358.502 283.212ZM374.554 274.319L370.416 274.742L370.221 289.464L367.061 289.787L367.256 275.066L363.093 275.492L363.132 272.567L374.593 271.395L374.554 274.319ZM381.165 284.367L377.026 284.79L375.945 288.878L372.81 289.199L378.137 270.906L380.62 270.652L385.501 287.9L382.19 288.239L381.165 284.367ZM377.738 282.099L380.648 281.801L379.699 277.795L379.334 275.063L379.234 275.073L378.771 277.915L377.738 282.099ZM392.514 269.561L395.499 269.255L395.394 277.146L396.126 276.718L398.859 268.911L402.396 268.55L399.158 276.635L398.144 277.569L399.359 278.477L402.789 286.131L398.977 286.521L396.144 279.133L395.367 279.213L395.265 286.901L392.28 287.207L392.386 279.216L391.679 279.64L388.619 287.581L384.957 287.956L388.571 279.833L389.738 278.757L388.621 277.965L385.467 270.282L389.129 269.907L391.636 277.228L392.414 277.148L392.514 269.561ZM404.03 268.382L412.808 267.484L412.769 270.408L407.151 270.983L407.094 275.319L412.185 274.798L412.146 277.722L407.055 278.243L406.995 282.781L412.713 282.196L412.675 285.12L403.796 286.028L404.03 268.382Z" fill="#231F20"/>
</svg>
