<svg width="37" height="37" viewBox="0 0 37 37" fill="none" xmlns="http://www.w3.org/2000/svg">
<path d="M32.375 15.417C32.375 26.2087 18.5 35.4587 18.5 35.4587C18.5 35.4587 4.625 26.2087 4.625 15.417C4.625 11.7371 6.08683 8.20795 8.68889 5.60589C11.291 3.00382 14.8201 1.54199 18.5 1.54199C22.1799 1.54199 25.709 3.00382 28.3111 5.60589C30.9132 8.20795 32.375 11.7371 32.375 15.417Z" stroke="white" stroke-width="2" stroke-linecap="round" stroke-linejoin="round"/>
<path d="M18.5 20.042C21.0543 20.042 23.125 17.9713 23.125 15.417C23.125 12.8627 21.0543 10.792 18.5 10.792C15.9457 10.792 13.875 12.8627 13.875 15.417C13.875 17.9713 15.9457 20.042 18.5 20.042Z" stroke="white" stroke-width="2" stroke-linecap="round" stroke-linejoin="round"/>
</svg>
