<svg width="192" height="192" viewBox="0 0 192 192" fill="none" xmlns="http://www.w3.org/2000/svg">
<g style="mix-blend-mode:difference">
<mask id="mask0_757_50" style="mask-type:alpha" maskUnits="userSpaceOnUse" x="0" y="0" width="192" height="192">
<rect width="192" height="192" fill="#D9D9D9"/>
</mask>
<g mask="url(#mask0_757_50)">
<path d="M96 96C100.4 96 104.167 94.4333 107.3 91.3C110.433 88.1667 112 84.4 112 80C112 75.6 110.433 71.8333 107.3 68.7C104.167 65.5667 100.4 64 96 64C91.6 64 87.8333 65.5667 84.7 68.7C81.5667 71.8333 80 75.6 80 80C80 84.4 81.5667 88.1667 84.7 91.3C87.8333 94.4333 91.6 96 96 96ZM96 154.8C112.267 139.867 124.333 126.3 132.2 114.1C140.067 101.9 144 91.0667 144 81.6C144 67.0667 139.367 55.1667 130.1 45.9C120.833 36.6333 109.467 32 96 32C82.5333 32 71.1667 36.6333 61.9 45.9C52.6333 55.1667 48 67.0667 48 81.6C48 91.0667 51.9333 101.9 59.8 114.1C67.6667 126.3 79.7333 139.867 96 154.8ZM96 176C74.5333 157.733 58.5 140.767 47.9 125.1C37.3 109.433 32 94.9333 32 81.6C32 61.6 38.4333 45.6667 51.3 33.8C64.1667 21.9333 79.0667 16 96 16C112.933 16 127.833 21.9333 140.7 33.8C153.567 45.6667 160 61.6 160 81.6C160 94.9333 154.7 109.433 144.1 125.1C133.5 140.767 117.467 157.733 96 176Z" fill="#EDB406"/>
</g>
</g>
</svg>
