<svg width="39" height="39" viewBox="0 0 39 39" fill="none" xmlns="http://www.w3.org/2000/svg">
<g clip-path="url(#clip0_600_277)">
<path d="M37.5 19.5C37.5 29.4411 29.4411 37.5 19.5 37.5C9.55888 37.5 1.5 29.4411 1.5 19.5C1.5 9.55888 9.55888 1.5 19.5 1.5C29.4411 1.5 37.5 9.55888 37.5 19.5Z" stroke="white" stroke-width="3"/>
<path fill-rule="evenodd" clip-rule="evenodd" d="M8.8269 19.2944C14.5115 16.8177 18.3022 15.1849 20.1989 14.396C25.6142 12.1436 26.7395 11.7523 27.4729 11.7394C27.6342 11.7366 27.9949 11.7765 28.2285 11.9661C28.4258 12.1262 28.4801 12.3424 28.5061 12.4942C28.532 12.646 28.5644 12.9917 28.5387 13.2618C28.2452 16.3453 26.9754 23.8279 26.3294 27.2814C26.0561 28.7426 25.5178 29.2326 24.9968 29.2806C23.8644 29.3848 23.0045 28.5322 21.9077 27.8132C20.1914 26.6882 19.2219 25.9879 17.5559 24.8901C15.6307 23.6213 16.8788 22.924 17.976 21.7844C18.2631 21.4862 23.2525 16.948 23.3491 16.5363C23.3611 16.4848 23.3723 16.2929 23.2583 16.1915C23.1443 16.0902 22.976 16.1248 22.8546 16.1524C22.6824 16.1915 19.9407 18.0036 14.6294 21.5889C13.8511 22.1233 13.1462 22.3837 12.5147 22.3701C11.8184 22.355 10.4791 21.9764 9.48347 21.6528C8.26229 21.2558 7.29171 21.0459 7.37622 20.3718C7.42024 20.0206 7.9038 19.6615 8.8269 19.2944Z" fill="white"/>
</g>
<defs>
<clipPath id="clip0_600_277">
<rect width="39" height="39" fill="white"/>
</clipPath>
</defs>
</svg>
